<svg width="41" height="41" viewBox="0 0 41 41" fill="none" xmlns="http://www.w3.org/2000/svg">
<path d="M15.5 32.5C19.0997 33.9873 21.08 33.9902 24.5 32.5M19.9999 40C29.2402 39.5875 32.9775 37.352 36.4999 29C40.0518 26.5595 39.8861 24.7762 36.4999 22.5C33.7542 11.1826 30.2628 8.18865 19.9999 8.50002C9.80482 8.9306 6.50937 12.1329 3.99986 22.5C0.788663 24.8838 0.605925 26.2974 3.99986 29C8.13055 36.7405 11.4913 39.3828 19.9999 40Z" stroke="white" stroke-width="2" stroke-linecap="round"/>
<circle cx="13.5" cy="23.5" r="2.5" fill="white"/>
<circle cx="26.5" cy="23.5" r="2.5" fill="white"/>
<path d="M23.5 1.5C21.2144 3.48444 20.3106 4.99292 19 8C17.2187 6.25339 16.0967 5.68358 14 5" stroke="white" stroke-width="2" stroke-linecap="round"/>
</svg>
