<svg width="44" height="43" viewBox="0 0 44 43" fill="none" xmlns="http://www.w3.org/2000/svg">
<circle cx="13.5" cy="20.5" r="2" fill="black" stroke="black"/>
<circle cx="26.5" cy="20.5" r="2" fill="black" stroke="black"/>
<path d="M24 1C21.3535 2.83179 20.307 4.22423 18.7895 7C16.7269 5.38774 15.4278 4.86177 13 4.23077" stroke="black" stroke-width="2" stroke-linecap="round"/>
<path d="M33 35.5L35 37.5L38.5 33" stroke="black" stroke-width="2" stroke-linecap="round"/>
<circle cx="36" cy="35" r="7" stroke="black" stroke-width="2"/>
<path d="M19.4475 7.00043C24.6421 6.84287 28.4024 7.50389 31.1946 9.87738C33.8935 12.1718 35.4964 15.9143 36.8547 21.3901C37.5959 21.9123 38.2164 22.4422 38.675 22.9946C39.2028 23.6303 39.5629 24.3539 39.5793 25.1684C39.5894 25.6762 39.4631 26.1544 39.2415 26.6039C38.5995 26.3559 37.9223 26.1797 37.219 26.0844C37.5104 25.6947 37.5833 25.4139 37.5793 25.2084C37.5748 24.988 37.4799 24.6863 37.136 24.2719C36.7867 23.8513 36.2296 23.3746 35.4202 22.8305L35.0969 22.6137L35.0061 22.2358C33.6388 16.5997 32.136 13.3039 29.8987 11.4018C27.6931 9.52696 24.576 8.8467 19.5081 9.00043L19.5071 8.99945C14.4872 9.21275 11.4082 10.1067 9.26099 12.0209C7.09154 13.9552 5.69641 17.0845 4.44946 22.2358L4.3645 22.5873L4.07349 22.8032C3.29358 23.3821 2.7586 23.8598 2.42114 24.2739C2.08957 24.6807 2.00485 24.9569 2.00024 25.1537C1.99582 25.3504 2.06672 25.6412 2.39575 26.0825C2.64659 26.4187 3.01785 26.8025 3.53442 27.2495L4.10083 27.7182L4.26294 27.8471L4.35962 28.0297C6.40379 31.8602 8.18762 34.2863 10.4124 35.8539C12.6111 37.4031 15.3557 38.1919 19.4895 38.4975C22.7883 38.3471 25.2756 37.9578 27.2678 37.184C27.4314 37.8401 27.6684 38.4668 27.967 39.0571C25.657 39.9498 22.9059 40.3484 19.5227 40.4995L19.4641 40.5024L19.4055 40.4975C15.0651 40.1826 11.8906 39.3422 9.26001 37.4887C6.68488 35.6741 4.74244 32.9649 2.69165 29.1498C1.89339 28.5023 1.24701 27.8876 0.792236 27.2778C0.301712 26.6199 -0.0169394 25.9001 0.0012207 25.1078C0.019512 24.3157 0.371029 23.6229 0.870361 23.0102C1.30499 22.477 1.89457 21.9551 2.59204 21.4194C3.83752 16.3878 5.33489 12.8414 7.92993 10.5278C10.6048 8.1431 14.2682 7.21966 19.4358 7.0014L19.4475 7.00043ZM23.5784 31.0834C24.0846 30.8629 24.6742 31.0948 24.8948 31.601C25.1149 32.1072 24.8833 32.6969 24.3772 32.9174C22.606 33.6892 21.1114 34.117 19.5452 34.1166C18.179 34.1163 16.8324 33.7899 15.2766 33.1957L14.5959 32.9243L14.5032 32.8813C14.0568 32.6415 13.8564 32.0971 14.054 31.6186C14.2517 31.1402 14.7774 30.8973 15.2629 31.0424L15.3596 31.0766L15.9924 31.3286C17.4192 31.8731 18.5097 32.1163 19.5452 32.1166C20.7237 32.1169 21.9299 31.8017 23.5784 31.0834Z" fill="black"/>
</svg>
