<svg width="28" height="36" viewBox="0 0 28 36" fill="none" xmlns="http://www.w3.org/2000/svg">
<path d="M2.70993 27.2181L3.47753 26.5772L3.47067 26.569L3.46364 26.5609L2.70993 27.2181ZM2.70993 20.9045L2.12756 20.0916L2.05742 20.1419L1.99692 20.2034L2.70993 20.9045ZM4.28833 17.7477L5.28782 17.7796L5.28833 17.7636V17.7477H4.28833ZM4.28833 9.85574L3.30589 9.66918L3.28833 9.76163V9.85574H4.28833ZM13.894 2.95453C14.4412 2.87973 14.8242 2.3755 14.7494 1.8283C14.6746 1.28111 14.1703 0.898157 13.6231 0.97296L13.7586 1.96375L13.894 2.95453ZM24.8075 27.2181L25.4927 27.9464L25.5566 27.8863L25.6091 27.816L24.8075 27.2181ZM24.8075 20.9045H23.8075V21.2978L24.0755 21.5858L24.8075 20.9045ZM20.0723 31.1641L20.7713 31.8793L20.7794 31.8712L20.0723 31.1641ZM7.44513 31.1641L8.18435 30.4907L8.16869 30.4735L8.15223 30.457L7.44513 31.1641ZM22.4399 28.7965V27.7965H5.07753V28.7965V29.7965H22.4399V28.7965ZM5.07753 28.7965L5.35092 27.8346C4.85738 27.6943 4.56484 27.5639 4.3245 27.4023C4.07904 27.2372 3.83283 27.0027 3.47753 26.5772L2.70993 27.2181L1.94233 27.859C2.34879 28.3458 2.73583 28.7441 3.20845 29.0619C3.6862 29.3832 4.19658 29.5857 4.80414 29.7584L5.07753 28.7965ZM2.70993 27.2181L3.46364 26.5609C2.32068 25.2501 1.99419 24.4893 2.00008 23.928C2.00577 23.3859 2.32723 22.7199 3.42295 21.6057L2.70993 20.9045L1.99692 20.2034C0.853228 21.3664 0.0146644 22.5269 0.000188642 23.9071C-0.0140867 25.2681 0.779131 26.5254 1.95622 27.8753L2.70993 27.2181ZM2.70993 20.9045L3.2923 21.7174C3.92635 21.2632 4.45361 20.7769 4.80194 20.0941C5.14449 19.4225 5.25958 18.6667 5.28782 17.7796L4.28833 17.7477L3.28884 17.7159C3.26419 18.4899 3.16586 18.9 3.02033 19.1853C2.88057 19.4593 2.64508 19.7209 2.12756 20.0916L2.70993 20.9045ZM4.28833 17.7477H5.28833V9.85574H4.28833H3.28833V17.7477H4.28833ZM4.28833 9.85574L5.27077 10.0423C5.82817 7.10693 8.26213 3.72443 13.894 2.95453L13.7586 1.96375L13.6231 0.97296C7.14412 1.85866 4.02449 5.88488 3.30589 9.66918L4.28833 9.85574ZM24.8075 27.2181L25.6091 27.816C26.608 26.4768 27.3179 25.2413 27.3404 23.9347C27.3638 22.5759 26.6485 21.4149 25.5396 20.2233L24.8075 20.9045L24.0755 21.5858C25.077 22.662 25.3505 23.3321 25.3407 23.9003C25.33 24.5206 24.9847 25.308 24.0059 26.6202L24.8075 27.2181ZM24.8075 20.9045H25.8075V18.5369H24.8075H23.8075V20.9045H24.8075ZM24.8075 27.2181L24.1223 26.4898C23.3061 27.2577 22.8438 27.5328 22.0434 27.8785L22.4399 28.7965L22.8364 29.7145C23.8457 29.2786 24.5044 28.8763 25.4927 27.9464L24.8075 27.2181ZM22.4399 28.7965L21.7328 28.0894L19.3652 30.457L20.0723 31.1641L20.7794 31.8712L23.147 29.5036L22.4399 28.7965ZM20.0723 31.1641L19.3734 30.4489C16.7537 33.0091 15.0202 34.001 13.5403 34C12.0877 33.999 10.5018 33.0344 8.18435 30.4907L7.44513 31.1641L6.7059 31.8376C9.04308 34.403 11.1514 35.9983 13.539 36C15.8993 36.0016 18.1522 34.4389 20.7713 31.8793L20.0723 31.1641ZM7.44513 31.1641L8.15223 30.457L5.78464 28.0894L5.07753 28.7965L4.37042 29.5036L6.73802 31.8712L7.44513 31.1641Z" fill="white"/>
<path d="M24.8074 20.1153V18.5369" stroke="white" stroke-width="2" stroke-linecap="round"/>
<circle cx="20.5" cy="9.5" r="5.5" stroke="white" stroke-width="2"/>
</svg>
