<svg width="52" height="35" viewBox="0 0 52 35" fill="none" xmlns="http://www.w3.org/2000/svg">
<circle cx="6.21916" cy="18.9886" r="0.805343" fill="white" stroke="white"/>
<circle cx="38.8527" cy="20.2939" r="0.805343" fill="white" stroke="white"/>
<circle cx="31.0207" cy="20.2939" r="0.805343" fill="white" stroke="white"/>
<circle cx="15.3566" cy="18.9886" r="0.805343" fill="white" stroke="white"/>
<path d="M4.91311 15.0726C7.85961 12.5603 9.79238 11.5955 14.0505 11.1566C15.7977 9.15927 16.6737 9.01857 17.9665 11.1566C18.5794 12.8281 18.7486 13.8182 18.6192 15.7253M40.81 29.4313C41.9507 28.3379 42.2306 27.48 42.1154 25.5153C43.2545 23.9376 43.4623 22.7376 43.4207 20.294C43.5372 16.6263 43.067 15.0954 41.4627 13.1146C39.6792 10.0551 38.6778 10.5793 36.894 13.1146C36.1042 14.3707 35.3476 14.7568 33.6307 15.0726C30.0394 15.4987 28.8523 16.2777 27.7566 18.3359C26.4055 19.1003 26.3455 20.6494 27.7566 25.5153C28.5069 27.4544 29.1985 28.9438 29.992 30.084M40.81 29.4313C39.5923 31.6724 38.4249 32.5075 35.5887 33.3474C32.935 32.9237 31.3207 31.9934 29.992 30.084M40.81 29.4313L47.3375 30.084C50.8304 29.9924 51.5154 29.2187 48.6428 25.5153C50.9143 13.0361 50.2376 8.69749 45.3794 5.93514C41.2229 6.10943 40.7963 5.17837 38.2001 2.67179C32.3732 0.845064 27.6208 2.25357 21.2299 8.85261M21.2299 8.85261C19.6102 3.88117 15.0288 2.01913 11.4398 2.01911C6.21845 2.01909 3.90798 4.6298 2.9551 5.93514C2.00221 7.24048 -0.0148492 12.9626 2.9551 17.6832C0.494979 19.5454 0.224351 20.7847 2.9551 23.5573C4.01201 29.0454 5.56507 34 11.4398 34C15.1606 34 17.2536 30.4783 18.8214 27.4733M21.2299 8.85261C21.9666 11.1138 22.0906 14.0182 21.2299 17.6832C23.5625 20.2764 23.3282 21.8941 21.2299 23.5573C20.4605 24.1671 19.729 25.7336 18.8214 27.4733M18.8214 27.4733C23.2593 29.8857 25.6947 30.3215 29.992 30.084" stroke="white" stroke-width="2" stroke-linecap="round"/>
</svg>
