<svg width="44" height="32" viewBox="0 0 44 32" fill="none" xmlns="http://www.w3.org/2000/svg">
<path d="M8.5 28.5V30.5H35.5V28.5M8.5 28.5H2.5C4.44327 24.8852 6.11382 23.2918 10.5 21.5C11.4971 20.1629 11.3726 19.5267 10.5 18.5C7.93377 12.9571 7.9947 10.5798 10.5 7.5C12.2615 6.00495 13.4113 5.54842 16 6M8.5 28.5C11.2929 25.5683 13.2458 24.239 17.5 22.5C18.9004 20.3147 19 19 18.5 17.5C17.3748 16.0659 17.1478 15.1684 16.649 13.5C15.6827 12.5764 15.5 11.5 16.649 10.5C15.7248 4.60683 17.2671 3.06177 22 2C26.8154 2.78627 27.1852 5.46259 27.5 10.5C29.1132 11.5453 28 13.5 27.5 13.5C27 13.5 27.2849 16.3744 26 17.5C26 17.5 25.0329 19.9884 26.5 22.5C30.6631 24.3474 32.7002 25.6127 35.5 28.5M35.5 28.5H41.5C39.8523 24.8591 38.1931 23.2684 33.5 21.5C32.8399 20.2433 32.9476 19.6007 33.5 18.5C35.683 13.235 35.8223 10.7621 33.5 7.5C31.362 5.65604 30.1554 5.4589 28 6" stroke="white" stroke-width="2" stroke-linecap="round"/>
</svg>
